<?xml version="1.0" encoding="UTF-8" standalone="no"?>
<!DOCTYPE svg PUBLIC "-//W3C//DTD SVG 1.1//EN"
 "http://www.w3.org/Graphics/SVG/1.1/DTD/svg11.dtd">
<!-- Generated by graphviz version 7.0.2 (20221119.0110)
 -->
<!-- Pages: 1 -->
<svg width="775pt" height="218pt"
 viewBox="0.00 0.00 775.24 218.00" xmlns="http://www.w3.org/2000/svg" xmlns:xlink="http://www.w3.org/1999/xlink">
<g id="graph0" class="graph" transform="scale(1 1) rotate(0) translate(4 214)">
<polygon fill="white" stroke="none" points="-4,4 -4,-214 771.24,-214 771.24,4 -4,4"/>
<!-- 1586 gnome&#45;shell -->
<g id="node1" class="node">
<title>1586 gnome&#45;shell</title>
<ellipse fill="none" stroke="black" cx="314.05" cy="-105" rx="74.99" ry="18"/>
<text text-anchor="middle" x="314.05" y="-101.3" font-family="Times,serif" font-size="14.00">1586 gnome&#45;shell</text>
</g>
<!-- 143 current -->
<g id="node2" class="node">
<title>143 current</title>
<ellipse fill="none" stroke="black" cx="206.05" cy="-18" rx="51.5" ry="18"/>
<text text-anchor="middle" x="206.05" y="-14.3" font-family="Times,serif" font-size="14.00">143 current</text>
</g>
<!-- 1586 gnome&#45;shell&#45;&gt;143 current -->
<g id="edge1" class="edge">
<title>1586 gnome&#45;shell&#45;&gt;143 current</title>
<path fill="none" stroke="black" d="M258.88,-92.54C244.99,-87.35 231.17,-79.84 221.05,-69 215.48,-63.04 211.97,-55.08 209.76,-47.28"/>
<polygon fill="black" stroke="black" points="213.22,-46.71 207.69,-37.68 206.38,-48.19 213.22,-46.71"/>
<text text-anchor="middle" x="263.55" y="-57.8" font-family="Times,serif" font-size="14.00">[13996, 13997]</text>
</g>
<!-- 124 current -->
<g id="node3" class="node">
<title>124 current</title>
<ellipse fill="none" stroke="black" cx="367.05" cy="-18" rx="51.5" ry="18"/>
<text text-anchor="middle" x="367.05" y="-14.3" font-family="Times,serif" font-size="14.00">124 current</text>
</g>
<!-- 1586 gnome&#45;shell&#45;&gt;124 current -->
<g id="edge2" class="edge">
<title>1586 gnome&#45;shell&#45;&gt;124 current</title>
<path fill="none" stroke="black" d="M310.61,-86.79C309.47,-76.65 309.64,-63.91 315.05,-54 318.07,-48.45 322.41,-43.61 327.3,-39.45"/>
<polygon fill="black" stroke="black" points="329.31,-42.32 335.32,-33.59 325.18,-36.67 329.31,-42.32"/>
<text text-anchor="middle" x="350.55" y="-57.8" font-family="Times,serif" font-size="14.00">[3486, 3487]</text>
</g>
<!-- 124 current&#45;&gt;1586 gnome&#45;shell -->
<g id="edge3" class="edge">
<title>124 current&#45;&gt;1586 gnome&#45;shell</title>
<path fill="none" stroke="black" d="M380.68,-35.52C387.29,-45.64 392.55,-58.61 386.05,-69 382.03,-75.41 376.47,-80.68 370.21,-85"/>
<polygon fill="black" stroke="black" points="368.74,-81.8 361.91,-89.9 372.3,-87.83 368.74,-81.8"/>
<text text-anchor="middle" x="423.55" y="-57.8" font-family="Times,serif" font-size="14.00">[3488, 3489]</text>
</g>
<!-- 9 card0 -->
<g id="node4" class="node">
<title>9 card0</title>
<ellipse fill="none" stroke="black" cx="37.05" cy="-192" rx="37.09" ry="18"/>
<text text-anchor="middle" x="37.05" y="-188.3" font-family="Times,serif" font-size="14.00">9 card0</text>
</g>
<!-- 9 card0&#45;&gt;1586 gnome&#45;shell -->
<g id="edge4" class="edge">
<title>9 card0&#45;&gt;1586 gnome&#45;shell</title>
<path fill="none" stroke="black" d="M57.68,-176.82C75.14,-165.47 101.22,-150 126.05,-141 160.82,-128.39 200.93,-120.12 235.15,-114.81"/>
<polygon fill="black" stroke="black" points="235.64,-118.28 245.01,-113.34 234.61,-111.35 235.64,-118.28"/>
<text text-anchor="middle" x="155.05" y="-144.8" font-family="Times,serif" font-size="14.00">[502, 503]</text>
</g>
<!-- 78 event4 -->
<g id="node5" class="node">
<title>78 event4</title>
<ellipse fill="none" stroke="black" cx="138.05" cy="-192" rx="45.5" ry="18"/>
<text text-anchor="middle" x="138.05" y="-188.3" font-family="Times,serif" font-size="14.00">78 event4</text>
</g>
<!-- 78 event4&#45;&gt;1586 gnome&#45;shell -->
<g id="edge5" class="edge">
<title>78 event4&#45;&gt;1586 gnome&#45;shell</title>
<path fill="none" stroke="black" d="M158.51,-175.54C173.36,-164.84 194.23,-150.8 214.05,-141 227.58,-134.31 242.71,-128.31 257.03,-123.25"/>
<polygon fill="black" stroke="black" points="258.03,-126.61 266.35,-120.05 255.75,-119.99 258.03,-126.61"/>
<text text-anchor="middle" x="243.05" y="-144.8" font-family="Times,serif" font-size="14.00">[518, 520]</text>
</g>
<!-- 22 event3 -->
<g id="node6" class="node">
<title>22 event3</title>
<ellipse fill="none" stroke="black" cx="247.05" cy="-192" rx="45.5" ry="18"/>
<text text-anchor="middle" x="247.05" y="-188.3" font-family="Times,serif" font-size="14.00">22 event3</text>
</g>
<!-- 22 event3&#45;&gt;1586 gnome&#45;shell -->
<g id="edge6" class="edge">
<title>22 event3&#45;&gt;1586 gnome&#45;shell</title>
<path fill="none" stroke="black" d="M259.96,-174.61C269.57,-162.42 282.87,-145.56 293.87,-131.6"/>
<polygon fill="black" stroke="black" points="296.33,-134.13 299.77,-124.11 290.83,-129.8 296.33,-134.13"/>
<text text-anchor="middle" x="319.55" y="-144.8" font-family="Times,serif" font-size="14.00">[1504, 1505]</text>
</g>
<!-- 124 index.theme -->
<g id="node7" class="node">
<title>124 index.theme</title>
<ellipse fill="none" stroke="black" cx="381.05" cy="-192" rx="70.39" ry="18"/>
<text text-anchor="middle" x="381.05" y="-188.3" font-family="Times,serif" font-size="14.00">124 index.theme</text>
</g>
<!-- 124 index.theme&#45;&gt;1586 gnome&#45;shell -->
<g id="edge7" class="edge">
<title>124 index.theme&#45;&gt;1586 gnome&#45;shell</title>
<path fill="none" stroke="black" d="M375.81,-173.65C372.18,-163.47 366.63,-150.72 359.05,-141 355.88,-136.94 352.14,-133.08 348.2,-129.52"/>
<polygon fill="black" stroke="black" points="350.46,-126.85 340.53,-123.17 346,-132.24 350.46,-126.85"/>
<text text-anchor="middle" x="402.55" y="-144.8" font-family="Times,serif" font-size="14.00">[6814, 6815]</text>
</g>
<!-- 125 index.theme -->
<g id="node8" class="node">
<title>125 index.theme</title>
<ellipse fill="none" stroke="black" cx="539.05" cy="-192" rx="70.39" ry="18"/>
<text text-anchor="middle" x="539.05" y="-188.3" font-family="Times,serif" font-size="14.00">125 index.theme</text>
</g>
<!-- 125 index.theme&#45;&gt;1586 gnome&#45;shell -->
<g id="edge8" class="edge">
<title>125 index.theme&#45;&gt;1586 gnome&#45;shell</title>
<path fill="none" stroke="black" d="M511.75,-174.97C492.69,-164.28 466.41,-150.49 442.05,-141 421.76,-133.1 399,-126.26 378.37,-120.78"/>
<polygon fill="black" stroke="black" points="379.49,-117.46 368.93,-118.33 377.73,-124.23 379.49,-117.46"/>
<text text-anchor="middle" x="509.55" y="-144.8" font-family="Times,serif" font-size="14.00">[7052, 7053]</text>
</g>
<!-- 140 index.theme -->
<g id="node9" class="node">
<title>140 index.theme</title>
<ellipse fill="none" stroke="black" cx="697.05" cy="-192" rx="70.39" ry="18"/>
<text text-anchor="middle" x="697.05" y="-188.3" font-family="Times,serif" font-size="14.00">140 index.theme</text>
</g>
<!-- 140 index.theme&#45;&gt;1586 gnome&#45;shell -->
<g id="edge9" class="edge">
<title>140 index.theme&#45;&gt;1586 gnome&#45;shell</title>
<path fill="none" stroke="black" d="M659.87,-176.38C630.26,-165.25 587.54,-150.29 549.05,-141 497.94,-128.67 439.48,-119.94 393.65,-114.28"/>
<polygon fill="black" stroke="black" points="394.13,-110.81 383.78,-113.09 393.29,-117.76 394.13,-110.81"/>
<text text-anchor="middle" x="640.55" y="-144.8" font-family="Times,serif" font-size="14.00">[10316, 10317]</text>
</g>
</g>
</svg>
